<?xml version="1.0" encoding="UTF-8" standalone="no"?>
<!-- Created with Inkscape (http://www.inkscape.org/) -->

<svg
   width="4.8912139mm"
   height="4.8974028mm"
   viewBox="0 0 4.8912139 4.8974028"
   version="1.1"
   id="svg1"
   inkscape:version="1.4.2 (f4327f4, 2025-05-13)"
   sodipodi:docname="aed.svg"
   xmlns:inkscape="http://www.inkscape.org/namespaces/inkscape"
   xmlns:sodipodi="http://sodipodi.sourceforge.net/DTD/sodipodi-0.dtd"
   xmlns="http://www.w3.org/2000/svg"
   xmlns:svg="http://www.w3.org/2000/svg">
  <sodipodi:namedview
     id="namedview1"
     pagecolor="#ffffff"
     bordercolor="#000000"
     borderopacity="0.25"
     inkscape:showpageshadow="2"
     inkscape:pageopacity="0.0"
     inkscape:pagecheckerboard="0"
     inkscape:deskcolor="#d1d1d1"
     inkscape:document-units="mm"
     inkscape:zoom="0.71891835"
     inkscape:cx="9.0413605"
     inkscape:cy="9.0413605"
     inkscape:window-width="1920"
     inkscape:window-height="1009"
     inkscape:window-x="-8"
     inkscape:window-y="-8"
     inkscape:window-maximized="1"
     inkscape:current-layer="layer1" />
  <defs
     id="defs1" />
  <g
     inkscape:label="Layer 1"
     inkscape:groupmode="layer"
     id="layer1"
     transform="translate(-102.65833,-146.05)">
    <g
       id="g46"
       inkscape:label="aed-0"
       style="display:inline"
       transform="matrix(0.26458333,0,0,0.26458333,-54.473367,158.43128)">
      <rect
         x="594.091"
         y="-46.587971"
         width="18.071659"
         height="18.095051"
         ry="9.0475254"
         id="rect2224"
         style="display:inline;fill:#003da5;fill-opacity:1;stroke:#ffffff;stroke-width:0.414818;stroke-miterlimit:4;stroke-dasharray:none" />
      <g
         id="g3514"
         transform="matrix(1.2690221,0,0,1.2711148,171.87844,-190.18993)"
         style="display:inline;stroke-width:0.787359">
        <g
           aria-label="AED"
           id="g3510"
           transform="translate(-2.2714431,133.80645)"
           style="font-weight:bold;font-size:3.84266px;line-height:1.25;font-family:Helvetica;-inkscape-font-specification:'Helvetica Bold';letter-spacing:0px;text-orientation:upright;fill:#ff0000;stroke-width:0.208321">
          <g
             id="g3508"
             style="stroke-width:0.208321">
            <path
               id="path3506"
               d="m 344.25656,-18.236418 v 1.805 h 0.53287 q 0.40903,0 0.5704,-0.403405 0.0882,-0.221403 0.0882,-0.52724 0,-0.422167 -0.13322,-0.647323 -0.13134,-0.227032 -0.52536,-0.227032 z m 0.63044,-0.480332 q 0.25705,0.0038 0.42779,0.06004 0.29083,0.09569 0.47096,0.350868 0.14447,0.206393 0.19701,0.446559 0.0525,0.240166 0.0525,0.457817 0,0.551632 -0.2214,0.934397 -0.30021,0.515982 -0.92689,0.515982 h -1.19145 v -2.765664 z m -1.70931,0.489714 h -1.46351 v 0.587281 h 1.34343 v 0.480333 h -1.34343 v 0.711117 h 1.53106 v 0.497219 h -2.09583 v -2.765664 h 2.02828 z m -4.06406,1.230852 h 0.70173 l -0.34524,-1.088254 z m 0.0356,-1.720566 h 0.65295 l 0.97943,2.765664 h -0.62669 l -0.17825,-0.568518 h -1.01883 l -0.19138,0.568518 h -0.60417 z m 0.32272,0 z m 2.7916,4.502435 c 0.18639,-0.357584 0.39297,-0.624262 0.61975,-0.800033 0.22676,-0.175758 0.51256,-0.263641 0.85739,-0.263647 0.44111,6e-6 0.81078,0.143194 1.10901,0.429563 0.29821,0.286381 0.44732,0.649275 0.44733,1.088682 -1e-5,0.306078 -0.0684,0.611394 -0.20503,0.915947 -0.13669,0.304562 -0.38986,0.682607 -0.75953,1.134138 -0.58713,0.721245 -0.98787,1.242477 -1.20221,1.563701 -0.21435,0.3212276 -0.42248,0.7106366 -0.6244,1.1682311 -0.0777,0.1757656 -0.14912,0.2636471 -0.21435,0.2636471 h -0.0606 c -0.0621,0 -0.13203,-0.087881 -0.20969,-0.2636471 -0.20193,-0.4485022 -0.40773,-0.8318511 -0.61741,-1.1500481 -0.20969,-0.318193 -0.61431,-0.845488 -1.21386,-1.581884 -0.36657,-0.451531 -0.61897,-0.829576 -0.75721,-1.134138 -0.13824,-0.304553 -0.20735,-0.609869 -0.20735,-0.915947 0,-0.445467 0.14911,-0.809876 0.44733,-1.093227 0.29822,-0.283339 0.66789,-0.425012 1.10901,-0.425018 0.34482,6e-6 0.63061,0.08789 0.85739,0.263647 0.22677,0.175771 0.4349,0.442449 0.6244,0.800033 z"
               style="stroke-width:0.208321" />
          </g>
        </g>
        <path
           d="m 340.11983,120.17382 1.01549,0.42015 -0.66898,0.86474 0.3134,0.14942 -0.63536,0.8095 0.26502,0.10997 -1.02445,1.29284 0.45899,-1.50591 -0.21823,-0.0958 0.42733,-0.93121 -0.21341,-0.0721 z"
           id="path3512"
           style="fill:#ffffff;stroke:none;stroke-width:1.5557px;stroke-linecap:round;stroke-linejoin:miter;stroke-miterlimit:8;stroke-dasharray:none;stroke-opacity:1" />
      </g>
    </g>
  </g>
</svg>
