<?xml version="1.0" encoding="UTF-8" standalone="no"?>
<!-- Created with Inkscape (http://www.inkscape.org/) -->

<svg
   width="4.8620462mm"
   height="4.9267011mm"
   viewBox="0 0 4.8620462 4.9267011"
   version="1.1"
   id="svg1"
   inkscape:version="1.4.2 (f4327f4, 2025-05-13)"
   sodipodi:docname="computer.svg"
   xmlns:inkscape="http://www.inkscape.org/namespaces/inkscape"
   xmlns:sodipodi="http://sodipodi.sourceforge.net/DTD/sodipodi-0.dtd"
   xmlns="http://www.w3.org/2000/svg"
   xmlns:svg="http://www.w3.org/2000/svg">
  <sodipodi:namedview
     id="namedview1"
     pagecolor="#ffffff"
     bordercolor="#000000"
     borderopacity="0.25"
     inkscape:showpageshadow="2"
     inkscape:pageopacity="0.0"
     inkscape:pagecheckerboard="0"
     inkscape:deskcolor="#d1d1d1"
     inkscape:document-units="mm"
     inkscape:zoom="0.71891835"
     inkscape:cx="9.0413605"
     inkscape:cy="9.0413605"
     inkscape:window-width="1920"
     inkscape:window-height="1009"
     inkscape:window-x="-8"
     inkscape:window-y="-8"
     inkscape:window-maximized="1"
     inkscape:current-layer="layer1" />
  <defs
     id="defs1" />
  <g
     inkscape:label="Layer 1"
     inkscape:groupmode="layer"
     id="layer1"
     transform="translate(-102.65833,-146.05)">
    <g
       id="g4"
       inkscape:label="computer-0"
       style="display:inline"
       transform="matrix(0.26458333,0,0,0.26458333,-95.852817,165.24453)">
      <rect
         x="750.48578"
         y="-72.338852"
         width="17.96142"
         height="18.205784"
         ry="9.1028919"
         id="rect2020"
         style="display:inline;fill:#003da5;fill-opacity:1;stroke:#ffffff;stroke-width:0.414818;stroke-miterlimit:4;stroke-dasharray:none" />
      <path
         id="path3504"
         d="m 753.45907,-57.723758 c 0,-0.135139 10e-4,-0.137446 0.10545,-0.222509 0.11257,-0.09177 1.15516,-1.200285 1.31235,-1.395349 l 0.094,-0.116536 1.22541,-0.0172 c 0.67398,-0.0093 2.72895,-0.01792 4.56661,-0.01895 l 3.3412,-0.001 0.11485,0.159071 c 0.0632,0.08756 0.25439,0.314801 0.42497,0.505131 0.17058,0.190327 0.32704,0.376389 0.34769,0.413471 0.0206,0.03708 0.0693,0.09054 0.10825,0.118887 0.11903,0.08663 0.25456,0.241943 0.30027,0.344178 0.024,0.05346 0.0503,0.158078 0.0586,0.232615 l 0.0152,0.135496 h -6.00743 -6.00743 z m 4.97256,-0.549639 c 0.1765,-0.05615 0.24108,-0.185372 0.1791,-0.358414 -0.048,-0.133765 -0.4975,-0.201152 -0.6604,-0.09899 -0.26146,0.163947 -0.051,0.528901 0.28625,0.496299 0.0576,-0.0062 0.14529,-0.02297 0.19505,-0.03893 z m 0.85471,-0.01494 c 0.0934,-0.04862 0.2109,-0.172103 0.2109,-0.221475 0,-0.142696 -0.13389,-0.253892 -0.328,-0.272392 -0.2314,-0.02204 -0.41287,0.06727 -0.43917,0.216006 -0.0448,0.253912 0.28556,0.418951 0.55627,0.277861 z m 2.6469,6.08e-4 c 0.0816,-0.03986 0.1613,-0.161205 0.1613,-0.245559 0,-0.08323 -0.0602,-0.160733 -0.1639,-0.210701 -0.15577,-0.0751 -0.40886,-0.0444 -0.50207,0.06098 -0.065,0.07334 -0.0834,0.228594 -0.036,0.305046 0.0876,0.141903 0.34659,0.185146 0.54084,0.09024 z m -7.02997,0.01463 c 0.16652,-0.0378 0.20607,-0.08941 0.1934,-0.251566 -0.0127,-0.161195 -0.0513,-0.19972 -0.23986,-0.23912 -0.28651,-0.05974 -0.50977,0.04934 -0.50977,0.249164 0,0.05274 0.0204,0.09714 0.068,0.147661 0.10761,0.114299 0.26537,0.144591 0.48818,0.09383 z m 0.89372,8.33e-4 c 0.12917,-0.03811 0.17058,-0.09528 0.17058,-0.235824 0,-0.22571 -0.15906,-0.312401 -0.47079,-0.256581 -0.17674,0.03162 -0.28397,0.113129 -0.28397,0.215708 0,0.08848 0.075,0.212277 0.15676,0.258856 0.086,0.04903 0.29243,0.05768 0.42742,0.01782 z m 0.96179,-0.03399 c 0.12758,-0.05583 0.15265,-0.27742 0.0437,-0.386123 -0.13839,-0.13803 -0.5105,-0.120298 -0.66498,0.03173 -0.0871,0.0857 -0.0829,0.223063 0.009,0.305551 0.0651,0.05809 0.0935,0.07036 0.22026,0.09322 0.0854,0.01546 0.31386,-0.01055 0.39162,-0.0444 z m 0.82493,0.02307 c 0.13846,-0.04368 0.16864,-0.09353 0.15408,-0.25448 -0.0138,-0.153728 -0.0566,-0.189471 -0.27003,-0.226018 -0.2653,-0.04543 -0.48422,0.02575 -0.50193,0.163154 -0.0165,0.127717 0.0627,0.262214 0.1883,0.320331 0.0916,0.04234 0.29007,0.04109 0.42958,-0.002 z m 2.55119,5.36e-4 c 0.0755,-0.02379 0.1357,-0.06315 0.18161,-0.118659 0.0798,-0.09662 0.0817,-0.109341 0.0298,-0.203738 -0.11345,-0.20622 -0.58183,-0.245435 -0.70485,-0.05892 -0.0492,0.07458 -0.0435,0.258517 0.009,0.309527 0.10647,0.102286 0.2973,0.130633 0.48374,0.07179 z m 0.87599,0.01169 c 0.0882,-0.02596 0.18739,-0.132684 0.20919,-0.224875 0.0439,-0.185517 -0.10152,-0.278512 -0.41505,-0.265543 -0.17511,0.0072 -0.20297,0.01463 -0.25192,0.06695 -0.0316,0.03369 -0.061,0.09992 -0.0693,0.154995 -0.0114,0.08004 -0.006,0.106748 0.0379,0.160042 0.0937,0.114756 0.30699,0.162052 0.48917,0.108274 z m 1.77594,0 c 0.16576,-0.04882 0.25218,-0.265223 0.15634,-0.391366 -0.10444,-0.137474 -0.37637,-0.178614 -0.55195,-0.08354 -0.0973,0.05274 -0.2301,0.197702 -0.2301,0.251328 0,0.06499 0.10228,0.157776 0.22225,0.20176 0.13648,0.04995 0.28125,0.05778 0.40346,0.02184 z m 0.95698,-0.04172 0.0967,-0.04543 0.13977,0.05583 c 0.18182,0.07252 0.40195,0.07643 0.50639,0.0083 0.0784,-0.05068 0.16052,-0.174875 0.16064,-0.242849 1.6e-4,-0.09528 -0.0651,-0.179244 -0.161,-0.20687 -0.14931,-0.04305 -0.48344,-0.01627 -0.5841,0.04687 -0.0868,0.05439 -0.14277,0.05119 -0.14277,-0.0083 0,-0.02174 0.0363,-0.04501 0.0943,-0.06077 0.16891,-0.04584 0.22481,-0.07056 0.27653,-0.122154 0.0594,-0.05923 0.0675,-0.171975 0.0176,-0.247448 -0.0806,-0.122294 -0.42899,-0.178193 -0.5821,-0.09343 -0.14125,0.07819 -0.15705,0.213595 -0.0396,0.338382 0.0428,0.04543 0.0778,0.08529 0.0778,0.08869 0,0.003 -0.0874,0.01169 -0.19424,0.01823 -0.20685,0.01298 -0.34994,0.06592 -0.36721,0.13596 -0.0282,0.114528 0.1052,0.32577 0.2355,0.37302 0.0995,0.03605 0.35095,0.01524 0.46569,-0.03873 z m -7.54313,-0.505014 c 0.092,-0.04903 0.18869,-0.168008 0.18869,-0.232274 0,-0.09579 -0.12272,-0.199246 -0.25931,-0.218478 -0.11231,-0.01586 -0.30807,0.0122 -0.38329,0.055 -0.065,0.03687 -0.0996,0.173454 -0.0638,0.251224 0.0769,0.166411 0.33912,0.239628 0.51765,0.144502 z m 3.54045,-0.01473 c 0.0773,-0.03853 0.17788,-0.169564 0.17788,-0.231728 0,-0.05449 -0.0997,-0.143088 -0.1914,-0.170107 -0.11345,-0.03338 -0.32571,-0.03255 -0.43384,0.002 -0.0946,0.03007 -0.19613,0.123095 -0.19613,0.179676 0,0.04789 0.10063,0.185703 0.16186,0.221489 0.11485,0.06727 0.34577,0.06665 0.48163,-10e-4 z m 0.77852,0.04141 c 0.13496,-0.0307 0.28734,-0.172211 0.28734,-0.266803 0,-0.127099 -0.20647,-0.21205 -0.48293,-0.198711 -0.15109,0.0072 -0.18671,0.01762 -0.25693,0.07437 -0.16077,0.13018 -0.0626,0.328267 0.19597,0.395066 0.098,0.02523 0.13011,0.02472 0.25655,-0.003 z m -5.15481,-0.05706 c 0.0365,-0.03276 0.0973,-0.07087 0.13491,-0.08477 0.0503,-0.01865 0.0683,-0.03996 0.0683,-0.08096 0,-0.05831 -0.077,-0.151792 -0.125,-0.151792 -0.0154,0 -0.0437,-0.02379 -0.0628,-0.05304 -0.0317,-0.04821 -0.0518,-0.05284 -0.22039,-0.05048 -0.10203,10e-4 -0.2102,0.0093 -0.24046,0.0172 -0.0802,0.02132 -0.1788,0.181601 -0.16019,0.260319 0.0279,0.118239 0.18781,0.1982 0.40206,0.201104 0.11561,10e-4 0.14746,-0.0072 0.20369,-0.05768 z m 1.73432,0.01277 c 0.19541,-0.105807 0.21266,-0.311373 0.0327,-0.391152 -0.085,-0.0377 -0.35648,-0.04471 -0.43935,-0.01055 -0.1286,0.05191 -0.187,0.209692 -0.12398,0.334838 0.0584,0.115824 0.36841,0.155303 0.53046,0.06757 z m 0.88794,0 c 0.13923,-0.0754 0.19089,-0.19342 0.13405,-0.306172 -0.0395,-0.07829 -0.20024,-0.124391 -0.40032,-0.114756 -0.17197,0.0083 -0.18451,0.01258 -0.24576,0.08539 -0.0355,0.04224 -0.0646,0.101563 -0.0646,0.132057 0,0.07304 0.0792,0.177268 0.16462,0.21675 0.1047,0.04831 0.3103,0.04172 0.41199,-0.01328 z m 0.85146,0.01463 c 0.0902,-0.03996 0.19249,-0.165958 0.19249,-0.237012 0,-0.153224 -0.34379,-0.254357 -0.60391,-0.177647 -0.13583,0.03996 -0.20727,0.183322 -0.15858,0.318017 0.0396,0.109583 0.40222,0.171064 0.57,0.09662 z m 2.71603,-0.02915 c 0.0761,-0.06016 0.0975,-0.214948 0.042,-0.30476 -0.10406,-0.168664 -0.65913,-0.130571 -0.72369,0.04965 -0.0319,0.089 0.0315,0.196232 0.15655,0.264731 0.13377,0.07324 0.42695,0.06778 0.52509,-0.0093 z m 0.83856,0.02791 c 0.0892,-0.03956 0.12322,-0.09817 0.12322,-0.212538 0,-0.102287 -0.0543,-0.165903 -0.17061,-0.200194 -0.10634,-0.03142 -0.32753,-0.03245 -0.42692,-0.002 -0.22983,0.06995 -0.23854,0.295723 -0.0155,0.403215 0.11205,0.05407 0.38003,0.06057 0.48992,0.01182 z m 0.79526,-8.1e-5 c 0.0173,-0.01844 0.0605,-0.03688 0.0959,-0.04131 0.0529,-0.0062 0.0697,-0.02442 0.093,-0.100736 0.0699,-0.227224 -0.0263,-0.30316 -0.3876,-0.305952 -0.19619,-10e-4 -0.23407,0.0052 -0.28859,0.04769 -0.081,0.06366 -0.0876,0.136887 -0.0246,0.268663 0.0378,0.07911 0.0704,0.113244 0.12834,0.134192 0.11142,0.04038 0.34456,0.03873 0.38351,-0.002 z m -5.66449,-1.451878 c -0.15766,-0.01617 -0.21048,-0.03461 -0.21048,-0.07314 0,-0.03512 0.0926,-0.117845 0.21519,-0.191945 0.17118,-0.103684 0.24464,-0.195758 0.29896,-0.374784 0.0263,-0.08652 0.042,-0.173597 0.0348,-0.193457 -0.0182,-0.05017 -0.19776,-0.0619 -1.33693,-0.08808 -0.95461,-0.02194 -1.17735,-0.04059 -1.31535,-0.110053 -0.0944,-0.04749 -0.22085,-0.204376 -0.25169,-0.312183 -0.0132,-0.04626 -0.0325,-0.412774 -0.0428,-0.814571 -0.0236,-0.921387 -0.0249,-4.372849 -0.003,-5.278761 0.0155,-0.608439 0.0222,-0.695131 0.0619,-0.790238 0.0485,-0.116053 0.14031,-0.210001 0.27902,-0.28512 0.15345,-0.08313 0.64144,-0.09466 4.14551,-0.09868 3.46589,-0.0031 3.784,0.0031 4.04624,0.09662 0.10622,0.0376 0.12107,0.05274 0.20044,0.202592 l 0.0859,0.161947 0.0203,0.54504 c 0.0101,0.299768 0.0266,1.6585 0.0343,3.019439 0.014,2.489758 0.005,2.943728 -0.0632,3.151 -0.0461,0.140124 -0.16147,0.292533 -0.27491,0.363103 -0.19132,0.119027 -0.28527,0.128326 -1.52671,0.151215 -0.63348,0.01169 -1.15646,0.02616 -1.16216,0.03224 -0.0284,0.03007 0.15697,0.497154 0.23247,0.585782 0.0194,0.02276 0.0854,0.05717 0.14646,0.07653 0.13556,0.04265 0.21457,0.09518 0.21457,0.142367 0,0.08911 -0.0676,0.0925 -1.89803,0.09591 -0.97675,0.002 -1.84602,-0.0031 -1.9317,-0.01271 z m 1.9274,-1.789747 c 0.0957,-0.06685 0.1343,-0.142023 0.13597,-0.264128 0.003,-0.136268 -0.0458,-0.200854 -0.16441,-0.222104 -0.1033,-0.01855 -0.25432,0.02194 -0.3125,0.08364 -0.10139,0.107574 -0.0213,0.336727 0.14438,0.413355 0.0912,0.04223 0.12335,0.04049 0.19656,-0.01055 z m -0.0679,-1.26894 3.32433,-0.01328 v -2.188359 -2.188367 h -3.39845 -3.39842 l 0.009,2.162172 c 0.006,1.189187 0.0176,2.186888 0.0273,2.217101 0.0133,0.04244 0.0281,0.0514 0.0642,0.03956 0.0258,-0.0083 1.54283,-0.02132 3.37121,-0.02864 z"
         style="display:inline;fill:#ffffff;stroke:none;stroke-width:0.214412" />
    </g>
  </g>
</svg>
