<?xml version="1.0" encoding="UTF-8" standalone="no"?>
<!-- Created with Inkscape (http://www.inkscape.org/) -->

<svg
   width="4.8620462mm"
   height="4.9267011mm"
   viewBox="0 0 4.8620462 4.9267011"
   version="1.1"
   id="svg1"
   inkscape:version="1.4.2 (f4327f4, 2025-05-13)"
   sodipodi:docname="fountain.svg"
   xmlns:inkscape="http://www.inkscape.org/namespaces/inkscape"
   xmlns:sodipodi="http://sodipodi.sourceforge.net/DTD/sodipodi-0.dtd"
   xmlns="http://www.w3.org/2000/svg"
   xmlns:svg="http://www.w3.org/2000/svg">
  <sodipodi:namedview
     id="namedview1"
     pagecolor="#ffffff"
     bordercolor="#000000"
     borderopacity="0.25"
     inkscape:showpageshadow="2"
     inkscape:pageopacity="0.0"
     inkscape:pagecheckerboard="0"
     inkscape:deskcolor="#d1d1d1"
     inkscape:document-units="mm"
     inkscape:zoom="0.71891835"
     inkscape:cx="9.0413605"
     inkscape:cy="9.0413605"
     inkscape:window-width="1920"
     inkscape:window-height="1009"
     inkscape:window-x="-8"
     inkscape:window-y="-8"
     inkscape:window-maximized="1"
     inkscape:current-layer="layer1" />
  <defs
     id="defs1" />
  <g
     inkscape:label="Layer 1"
     inkscape:groupmode="layer"
     id="layer1"
     transform="translate(-102.65833,-146.05)">
    <g
       id="g63"
       inkscape:label="fountain-0"
       style="display:inline"
       transform="matrix(0.26458333,0,0,0.26458333,-27.759857,165.24453)">
      <rect
         x="493.12656"
         y="-72.338852"
         width="17.96142"
         height="18.205784"
         ry="9.1028919"
         id="rect1820"
         style="display:inline;fill:#003da5;fill-opacity:1;stroke:#ffffff;stroke-width:0.414818;stroke-miterlimit:4;stroke-dasharray:none" />
      <g
         id="g3502"
         transform="matrix(0.02656008,0,0,0.02660841,493.88254,-71.822879)"
         style="display:inline;stroke-width:7.49576">
        <path
           id="path3500"
           d="m 443.94,227.22 c 4.05,0 7.34,-3.28 7.34,-7.34 0,-4.06 -3.29,-7.34 -7.34,-7.34 -4.06,0 -7.35,3.28 -7.35,7.34 0,4.06 3.29,7.34 7.35,7.34 z m 12.68,-12.95 c 4.05,0 7.34,-3.29 7.34,-7.35 0,-4.05 -3.29,-7.34 -7.34,-7.34 -4.06,0 -7.35,3.29 -7.35,7.34 0,4.06 3.29,7.35 7.35,7.35 z m -13.37,-13.55 c 3.86,0 6.99,-3.13 6.99,-6.99 0,-3.87 -3.13,-7 -6.99,-7 -3.87,0 -7,3.13 -7,7 0,3.86 3.13,6.99 7,6.99 z m -10.19,12.74 c 3.68,0 6.66,-2.98 6.66,-6.66 0,-3.68 -2.98,-6.66 -6.66,-6.66 -3.68,0 -6.66,2.98 -6.66,6.66 0,3.68 2.98,6.66 6.66,6.66 z m -5.17,-20.63 c 3.68,0 6.66,-2.98 6.66,-6.66 0,-3.68 -2.98,-6.66 -6.66,-6.66 -3.68,0 -6.66,2.98 -6.66,6.66 0,3.68 2.98,6.66 6.66,6.66 z m -16.29,-0.02 c 3.33,0 6.04,-2.71 6.04,-6.04 0,-3.34 -2.71,-6.05 -6.04,-6.05 -3.34,0 -6.05,2.71 -6.05,6.05 0,3.33 2.71,6.04 6.05,6.04 z m 6.57,14.88 c 3.34,0 6.04,-2.71 6.04,-6.05 0,-3.33 -2.7,-6.04 -6.04,-6.04 -3.34,0 -6.04,2.71 -6.04,6.04 0,3.34 2.7,6.05 6.04,6.05 z m -20.66,-9.6 c 3.34,0 6.05,-2.71 6.05,-6.04 0,-3.34 -2.71,-6.05 -6.05,-6.05 -3.33,0 -6.04,2.71 -6.04,6.05 0,3.33 2.71,6.04 6.04,6.04 z m 6.34,14.83 c 3.18,0 5.76,-2.58 5.76,-5.76 0,-3.17 -2.58,-5.75 -5.76,-5.75 -3.17,0 -5.75,2.58 -5.75,5.75 0,3.18 2.58,5.76 5.75,5.76 z m -17.84,-2.88 c 3.18,0 5.76,-2.58 5.76,-5.76 0,-3.17 -2.58,-5.75 -5.76,-5.75 -3.17,0 -5.75,2.58 -5.75,5.75 0,3.18 2.58,5.76 5.75,5.76 z m -4.74,15.02 c 3.02,0 5.48,-2.45 5.48,-5.48 0,-3.03 -2.46,-5.48 -5.48,-5.48 -3.03,0 -5.48,2.45 -5.48,5.48 0,3.03 2.45,5.48 5.48,5.48 z m 14.62,1.02 c 3.02,0 5.48,-2.45 5.48,-5.48 0,-3.02 -2.46,-5.48 -5.48,-5.48 -3.03,0 -5.48,2.46 -5.48,5.48 0,3.03 2.45,5.48 5.48,5.48 z m -0.94,16.2 c 3.02,0 5.48,-2.46 5.48,-5.48 0,-3.03 -2.46,-5.48 -5.48,-5.48 -3.03,0 -5.48,2.45 -5.48,5.48 0,3.02 2.45,5.48 5.48,5.48 z m -14.68,-0.96 c 3.03,0 5.48,-2.46 5.48,-5.48 0,-3.03 -2.45,-5.48 -5.48,-5.48 -3.03,0 -5.48,2.45 -5.48,5.48 0,3.02 2.45,5.48 5.48,5.48 z m 40.93018,134.54 h 70.49 V 247.35999 L 349.69007,247.1104 c -18.25028,0 -25.08007,20.58 -13.75012,33.49998 z M 254.68993,155.36 c 25.50021,-12.99998 61.00014,10.99999 61.22015,37.38999 v 85.31 L 356.56979,322.86 c 18.62008,21 -10.87977,49.75 -31.40975,28.78 l -46.00016,-50.58 c -2.83905,-2.75988 -4.97997,-6.11002 -4.97997,-13.89999 v -40.84999 l -80.08986,43.3 V 506.86 c 0,49 -66.45018,48.99 -66.45018,0.42007 V 249.78 c 0,-14.38 5.68994,-28.34002 19.92029,-36.48 z m 103.00025,36.07998 c 24.75978,0 44.82984,-20.06999 44.82984,-44.82999 0,-24.76 -20.07006,-44.83997 -44.82984,-44.83997 -24.76021,0 -44.83027,20.07997 -44.83027,44.83997 0,24.76 20.07006,44.82999 44.83027,44.82999 z"
           style="fill:#ffffff;stroke-width:7.49576" />
      </g>
    </g>
  </g>
</svg>
