<?xml version="1.0" encoding="UTF-8" standalone="no"?>
<!-- Created with Inkscape (http://www.inkscape.org/) -->

<svg
   width="4.8620462mm"
   height="4.9267011mm"
   viewBox="0 0 4.8620462 4.9267011"
   version="1.1"
   id="svg1"
   inkscape:version="1.4.2 (f4327f4, 2025-05-13)"
   sodipodi:docname="id.svg"
   xmlns:inkscape="http://www.inkscape.org/namespaces/inkscape"
   xmlns:sodipodi="http://sodipodi.sourceforge.net/DTD/sodipodi-0.dtd"
   xmlns="http://www.w3.org/2000/svg"
   xmlns:svg="http://www.w3.org/2000/svg">
  <sodipodi:namedview
     id="namedview1"
     pagecolor="#ffffff"
     bordercolor="#000000"
     borderopacity="0.25"
     inkscape:showpageshadow="2"
     inkscape:pageopacity="0.0"
     inkscape:pagecheckerboard="0"
     inkscape:deskcolor="#d1d1d1"
     inkscape:document-units="mm"
     inkscape:zoom="0.71891835"
     inkscape:cx="9.0413605"
     inkscape:cy="9.0413605"
     inkscape:window-width="1920"
     inkscape:window-height="1009"
     inkscape:window-x="-8"
     inkscape:window-y="-8"
     inkscape:window-maximized="1"
     inkscape:current-layer="layer1" />
  <defs
     id="defs1" />
  <g
     inkscape:label="Layer 1"
     inkscape:groupmode="layer"
     id="layer1"
     transform="translate(-102.65833,-146.04999)">
    <g
       id="g1929"
       transform="matrix(0.26458333,0,0,0.26458333,-104.17608,158.44592)"
       inkscape:label="id-1"
       style="display:inline">
      <rect
         x="781.94379"
         y="-46.643345"
         width="17.96142"
         height="18.205784"
         ry="9.1028919"
         id="rect1923"
         style="display:inline;fill:#003da5;fill-opacity:1;stroke:#ffffff;stroke-width:0.414818;stroke-miterlimit:4;stroke-dasharray:none" />
      <g
         id="g1928"
         transform="translate(-0.35825835,0.19232454)">
        <path
           d="M 796.83716,-42.828553 H 785.7284 c -0.44507,0 -0.80744,0.362354 -0.80744,0.807444 v 7.134649 c 0,0.445077 0.36235,0.807445 0.80744,0.807445 h 6.95104 c 0.12968,0.815984 0.83626,1.442013 1.68792,1.442013 0.85167,0 1.55828,-0.626521 1.68793,-1.442013 h 0.76848 c 0.45255,0 0.82078,-0.368229 0.82078,-0.821312 v -7.120713 c 0,-0.445077 -0.36235,-0.807445 -0.80745,-0.807445 z m -2.4698,9.942713 c -0.74286,0 -1.35658,-0.557146 -1.44939,-1.274927 0.004,-0.0112 0.007,-0.02295 0.007,-0.03576 0,-0.02028 -0.006,-0.03842 -0.0155,-0.0555 -0.002,-0.03202 -0.005,-0.06404 -0.005,-0.09659 0,-0.806366 0.65641,-1.462779 1.46277,-1.462779 0.80637,0 1.46278,0.656413 1.46278,1.462779 0,0.806366 -0.65641,1.462779 -1.46278,1.462779 z m 3.0425,-2.014582 c 0,0.323404 -0.26309,0.586505 -0.5865,0.586505 h -0.74659 c 0,-0.01174 0.002,-0.02295 0.002,-0.03469 0,-0.943518 -0.76794,-1.711425 -1.71142,-1.711425 -0.94348,0 -1.71142,0.767949 -1.71142,1.711425 0,0.01174 0.002,0.02295 0.002,0.03469 h -6.92862 c -0.31593,0 -0.57263,-0.257226 -0.57263,-0.572624 v -7.13465 c 0,-0.315931 0.2567,-0.572624 0.57263,-0.572624 h 11.10875 c 0.31594,0 0.57263,0.256693 0.57263,0.572624 z"
           id="path1923"
           style="fill:#ffffff;stroke:#ffffff;stroke-width:0.264583;stroke-opacity:1" />
        <path
           d="m 791.04152,-41.020403 h -4.78863 c -0.0646,0 -0.11741,0.0523 -0.11741,0.117408 v 4.788629 c 0,0.06457 0.0523,0.117408 0.11741,0.117408 h 4.78863 c 0.0646,0 0.1174,-0.0523 0.1174,-0.117408 v -4.788629 c 0,-0.06457 -0.0523,-0.117408 -0.1174,-0.117408 z m -1.05614,4.788629 h -2.66352 v -0.213999 c 0,-0.734327 0.59717,-1.331502 1.3315,-1.331502 0.73433,0 1.3315,0.597175 1.3315,1.331502 v 0.213999 z m 0.93872,0 h -0.7039 v -0.213999 c 0,-0.863473 -0.70284,-1.566336 -1.56634,-1.566336 -0.86346,0 -1.56633,0.702303 -1.56633,1.566336 v 0.213999 h -0.71778 v -4.55378 h 4.55378 v 4.55378 z"
           id="path1924"
           style="fill:#ffffff;stroke:#ffffff;stroke-width:0.264583;stroke-opacity:1" />
        <path
           d="m 796.38195,-39.212934 h -4.38834 c -0.0646,0 -0.11741,0.0523 -0.11741,0.117407 0,0.06457 0.0523,0.117408 0.11741,0.117408 h 4.38834 c 0.0646,0 0.11741,-0.0523 0.11741,-0.117408 0,-0.06457 -0.0523,-0.117407 -0.11741,-0.117407 z"
           id="path1925"
           style="fill:#ffffff;stroke:#ffffff;stroke-width:0.264583;stroke-opacity:1" />
        <path
           d="m 795.04349,-37.9294 h -3.04988 c -0.0646,0 -0.11741,0.0523 -0.11741,0.117408 0,0.06457 0.0523,0.117406 0.11741,0.117406 h 3.04988 c 0.0646,0 0.11741,-0.0523 0.11741,-0.117406 0,-0.06457 -0.0523,-0.117408 -0.11741,-0.117408 z"
           id="path1926"
           style="fill:#ffffff;stroke:#ffffff;stroke-width:0.264583;stroke-opacity:1" />
        <path
           d="m 788.65382,-38.136514 c 0.58223,0 1.0556,-0.473357 1.0556,-1.0556 0,-0.582242 -0.4739,-1.0556 -1.0556,-1.0556 -0.58222,0 -1.0556,0.473904 -1.0556,1.0556 0,0.582229 0.47336,1.0556 1.0556,1.0556 z m 0,-1.876324 c 0.45256,0 0.82132,0.368229 0.82132,0.821312 0,0.45255 -0.36823,0.821311 -0.82132,0.821311 -0.45255,0 -0.82131,-0.368228 -0.82131,-0.821311 0,-0.452551 0.36823,-0.821312 0.82131,-0.821312 z"
           id="path1927"
           style="fill:#ffffff;stroke:#ffffff;stroke-width:0.264583;stroke-opacity:1" />
        <path
           d="m 794.99499,-34.765306 -0.86561,0.902969 -0.44881,-0.437071 c -0.0491,-0.04803 -0.12755,-0.04696 -0.17559,0.0021 -0.048,0.0491 -0.047,0.127546 0.002,0.175583 l 0.53847,0.524589 c 0.0229,0.02242 0.0544,0.03522 0.0865,0.03522 h 0.002 c 0.0331,-5.16e-4 0.0646,-0.01441 0.0875,-0.03789 l 0.95207,-0.993684 c 0.0475,-0.04963 0.0459,-0.12808 -0.004,-0.175582 -0.0496,-0.04751 -0.12809,-0.04589 -0.17559,0.0037 z"
           id="path1928"
           style="fill:#ffffff;stroke:#ffffff;stroke-width:0.264583;stroke-opacity:1" />
      </g>
    </g>
  </g>
</svg>
