<?xml version="1.0" encoding="UTF-8" standalone="no"?>
<!-- Created with Inkscape (http://www.inkscape.org/) -->

<svg
   width="4.8912139mm"
   height="4.8974028mm"
   viewBox="0 0 4.8912139 4.8974028"
   version="1.1"
   id="svg1"
   inkscape:version="1.4.2 (f4327f4, 2025-05-13)"
   sodipodi:docname="info.svg"
   xmlns:inkscape="http://www.inkscape.org/namespaces/inkscape"
   xmlns:sodipodi="http://sodipodi.sourceforge.net/DTD/sodipodi-0.dtd"
   xmlns="http://www.w3.org/2000/svg"
   xmlns:svg="http://www.w3.org/2000/svg">
  <sodipodi:namedview
     id="namedview1"
     pagecolor="#ffffff"
     bordercolor="#000000"
     borderopacity="0.25"
     inkscape:showpageshadow="2"
     inkscape:pageopacity="0.0"
     inkscape:pagecheckerboard="0"
     inkscape:deskcolor="#d1d1d1"
     inkscape:document-units="mm"
     inkscape:zoom="0.71891835"
     inkscape:cx="9.0413605"
     inkscape:cy="9.0413605"
     inkscape:window-width="1920"
     inkscape:window-height="1009"
     inkscape:window-x="-8"
     inkscape:window-y="-8"
     inkscape:window-maximized="1"
     inkscape:current-layer="layer1" />
  <defs
     id="defs1" />
  <g
     inkscape:label="Layer 1"
     inkscape:groupmode="layer"
     id="layer1"
     transform="translate(-102.65833,-146.05)">
    <g
       id="g3"
       transform="matrix(0.26458333,0,0,0.26458333,-4.7202665,92.727015)"
       inkscape:label="info-b-0"
       style="display:inline">
      <rect
         x="406.04779"
         y="201.7431"
         width="18.071659"
         height="18.095051"
         ry="9.0475254"
         id="rect2"
         style="display:inline;fill:#003da5;fill-opacity:1;stroke:#ffffff;stroke-width:0.414818;stroke-miterlimit:4;stroke-dasharray:none" />
      <path
         id="path2"
         d="m 415.08361,205.25884 a 5.5225636,5.5316707 0 0 0 -5.52236,5.53147 5.5225636,5.5316707 0 0 0 5.52236,5.53212 5.5225636,5.5316707 0 0 0 5.52237,-5.53212 5.5225636,5.5316707 0 0 0 -5.52237,-5.53147 z m 0.0768,1.19155 c 0.084,0 0.16264,0.0102 0.23608,0.0315 0.0735,0.021 0.1364,0.0578 0.18887,0.11033 0.056,0.0525 0.0996,0.12089 0.13115,0.20495 0.035,0.084 0.0524,0.18916 0.0524,0.31528 0,0.1261 -0.0175,0.23122 -0.0524,0.3153 -0.0315,0.0841 -0.0751,0.15239 -0.13115,0.20494 -0.0524,0.0525 -0.11549,0.0911 -0.18887,0.11567 -0.0735,0.021 -0.15215,0.0315 -0.23608,0.0315 -0.0874,0 -0.16788,-0.0102 -0.24133,-0.0315 -0.0735,-0.0245 -0.13816,-0.0631 -0.19411,-0.11567 -0.056,-0.0525 -0.0996,-0.12088 -0.13117,-0.20494 -0.0315,-0.084 -0.0472,-0.18918 -0.0472,-0.3153 0,-0.12609 0.0157,-0.23121 0.0472,-0.31528 0.0315,-0.0841 0.0753,-0.1524 0.13117,-0.20495 0.056,-0.0525 0.12069,-0.0894 0.19411,-0.11033 0.0735,-0.021 0.1539,-0.0315 0.24133,-0.0315 z m -1.37453,2.40675 h 1.92015 v 4.54553 c 0,0.16815 0.0227,0.30303 0.0681,0.40462 0.049,0.10156 0.11193,0.18042 0.18886,0.23648 0.0805,0.0525 0.17488,0.0876 0.28331,0.10512 0.10837,0.0175 0.22209,0.0263 0.341,0.0263 h 0.14166 v 0.45192 h -3.05335 v -0.45192 h 0.14165 c 0.11891,0 0.23084,-0.008 0.33576,-0.021 0.10838,-0.0175 0.20287,-0.0508 0.28331,-0.0998 0.0805,-0.0491 0.1434,-0.12089 0.18887,-0.21546 0.049,-0.0981 0.0735,-0.22596 0.0735,-0.38361 v -3.41045 c 0,-0.15764 -0.0245,-0.28376 -0.0735,-0.37836 -0.0454,-0.0981 -0.10838,-0.1734 -0.18887,-0.22595 -0.0805,-0.0525 -0.17488,-0.0876 -0.28331,-0.10512 -0.10495,-0.0175 -0.21684,-0.0263 -0.33576,-0.0263 h -0.0315 z"
         style="display:inline;fill:#ffffff;stroke:none;stroke-width:1.89024" />
    </g>
  </g>
</svg>
