<?xml version="1.0" encoding="UTF-8" standalone="no"?>
<!-- Created with Inkscape (http://www.inkscape.org/) -->

<svg
   width="4.8620462mm"
   height="4.9267011mm"
   viewBox="0 0 4.8620462 4.9267011"
   version="1.1"
   id="svg1"
   inkscape:version="1.4.2 (f4327f4, 2025-05-13)"
   sodipodi:docname="kiosk.svg"
   xmlns:inkscape="http://www.inkscape.org/namespaces/inkscape"
   xmlns:sodipodi="http://sodipodi.sourceforge.net/DTD/sodipodi-0.dtd"
   xmlns="http://www.w3.org/2000/svg"
   xmlns:svg="http://www.w3.org/2000/svg">
  <sodipodi:namedview
     id="namedview1"
     pagecolor="#ffffff"
     bordercolor="#000000"
     borderopacity="0.25"
     inkscape:showpageshadow="2"
     inkscape:pageopacity="0.0"
     inkscape:pagecheckerboard="0"
     inkscape:deskcolor="#d1d1d1"
     inkscape:document-units="mm"
     inkscape:zoom="0.71891835"
     inkscape:cx="9.0413605"
     inkscape:cy="9.0413605"
     inkscape:window-width="1920"
     inkscape:window-height="1009"
     inkscape:window-x="-8"
     inkscape:window-y="-8"
     inkscape:window-maximized="1"
     inkscape:current-layer="layer1" />
  <defs
     id="defs1" />
  <g
     inkscape:label="Layer 1"
     inkscape:groupmode="layer"
     id="layer1"
     transform="translate(-102.65833,-146.05)">
    <g
       id="g25"
       inkscape:label="kiosk-0"
       style="display:inline"
       transform="matrix(0.26458333,0,0,0.26458333,-84.334397,165.24453)">
      <rect
         x="706.9516"
         y="-72.338852"
         width="17.96142"
         height="18.205784"
         ry="9.1028919"
         id="rect2024"
         style="display:inline;fill:#003da5;fill-opacity:1;stroke:#ffffff;stroke-width:0.414818;stroke-miterlimit:4;stroke-dasharray:none" />
      <path
         id="path3604"
         d="m 719.85383,-68.802288 c -0.61073,0 -1.19642,0.221838 -1.62822,0.616633 -0.43188,0.394891 -0.67467,0.930455 -0.67486,1.488932 9.9e-4,0.657077 0.3374,1.276071 0.9094,1.673737 -0.17002,0.214456 -0.404,0.403115 -0.72517,0.576205 0.57998,0.130224 1.1051,0.03052 1.54195,-0.213581 0.18831,0.04556 0.38217,0.06895 0.5769,0.06985 0.61073,0 1.1965,-0.22192 1.62837,-0.6169 0.4319,-0.394973 0.67455,-0.930671 0.67455,-1.48927 -1.8e-4,-0.55851 -0.24293,-1.094041 -0.67471,-1.488931 -0.43189,-0.394818 -1.01758,-0.616633 -1.62821,-0.616633 z m 0.0179,0.495074 c 0.02,-5.01e-4 0.0402,0.0023 0.0602,0.0067 0.0527,0.01448 0.098,0.04946 0.12626,0.09769 0.0264,0.04823 0.0333,0.105261 0.0192,0.158625 -0.0141,0.05346 -0.0481,0.09892 -0.0947,0.126654 -0.0176,0.01131 -0.0368,0.02005 -0.0569,0.02584 l -0.006,0.771897 c -0.0354,-0.0056 -0.0713,-0.0078 -0.10698,-0.0067 l 0.0127,-0.765158 h -9e-5 c -0.0552,-0.01246 -0.10152,-0.05079 -0.12563,-0.103596 h -8e-5 c -0.0275,-0.0479 -0.0349,-0.105375 -0.0208,-0.159148 0.0141,-0.05369 0.049,-0.09925 0.0963,-0.126133 0.0299,-0.01705 0.0629,-0.02629 0.0966,-0.02718 z m -9.34124,0.474846 c -0.45576,0 -0.82262,0.367479 -0.82262,0.824004 v 6.866728 c 0,0.456528 0.36686,0.824011 0.82262,0.824011 h 3.56488 l -0.37601,0.855617 c -0.0348,0.0881 -0.12132,0.233949 -0.3256,0.24296 h -0.35194 c -0.15187,0 -0.27414,0.122548 -0.27414,0.274755 0,0.152201 0.12221,0.274661 0.27414,0.274661 h 4.84917 c 0.15194,0 0.2742,-0.122472 0.2742,-0.274661 0,-0.152205 -0.12221,-0.274755 -0.2742,-0.274755 h -0.35185 c -0.2043,-0.0089 -0.29084,-0.154874 -0.32563,-0.24296 l -0.37601,-0.855617 h 3.56489 c 0.45577,0 0.82265,-0.367483 0.82265,-0.824011 v -4.574899 c -0.24902,0.147245 -0.5262,0.255629 -0.82265,0.316068 v 3.709585 h -9.87171 v -6.317225 h 6.79807 c 0.0425,-0.296026 0.14258,-0.574227 0.29233,-0.823994 z m 8.61857,0.224648 c 0.0202,-3.22e-4 0.0406,0.0023 0.0603,0.0089 0.0523,0.01504 0.0967,0.05057 0.12386,0.09913 0.027,0.04846 0.0345,0.105935 0.0208,0.160099 -0.008,0.01805 -0.0155,0.03543 -0.0251,0.05213 l 0.25774,0.272245 c -0.0247,0.02428 -0.0478,0.05023 -0.069,0.07775 l -0.26431,-0.278806 c -0.0451,0.02896 -0.10026,0.03599 -0.15078,0.01938 -0.0529,-0.01182 -0.0983,-0.04578 -0.12588,-0.0938 -0.0274,-0.04801 -0.0343,-0.105592 -0.0188,-0.158985 0.013,-0.05503 0.0472,-0.102147 0.0949,-0.130288 0.0297,-0.01761 0.0629,-0.02685 0.0966,-0.02741 z m 1.35632,0.07786 c 0.0197,-5.01e-4 0.0395,0.0023 0.0586,0.0078 0.0514,0.01459 0.0951,0.04946 0.12157,0.09702 0.0265,0.04768 0.0338,0.104143 0.0202,0.157247 -0.0136,0.05313 -0.0471,0.09857 -0.093,0.126489 -0.0459,0.02785 -0.10051,0.03597 -0.15224,0.02238 -0.0199,-0.0056 -0.0391,-0.01482 -0.0567,-0.02617 l -0.18243,0.188091 h -9e-5 c -0.0236,-0.02752 -0.0487,-0.05358 -0.0754,-0.07775 l 0.18899,-0.181608 c -0.0316,-0.04757 -0.0388,-0.10816 -0.0192,-0.162171 0.0147,-0.0528 0.049,-0.09757 0.0954,-0.124416 0.0291,-0.01682 0.0614,-0.02584 0.0939,-0.02662 z m -0.63684,0.50422 c 0.0345,-0.001 0.069,0.0033 0.10291,0.01337 0.0901,0.02596 0.16649,0.08777 0.21227,0.171936 0.0447,0.08365 0.0558,0.181985 0.0312,0.27406 -0.0248,0.092 -0.0833,0.170569 -0.16321,0.218766 -0.0812,0.04801 -0.1775,0.06059 -0.26775,0.0352 -0.0902,-0.0254 -0.16703,-0.08677 -0.21331,-0.170634 -0.0462,-0.08388 -0.0582,-0.183233 -0.0334,-0.276221 0.0249,-0.09301 0.0846,-0.171972 0.16612,-0.219458 0.0509,-0.02974 0.10762,-0.04556 0.1651,-0.04689 z m 1.0921,0.14939 c 0.0202,-5.01e-4 0.0406,0.0011 0.0604,0.0067 0.053,0.01471 0.0981,0.05068 0.12512,0.09992 0.0565,0.09713 0.0185,0.226909 -0.0754,0.291772 -0.0473,0.02762 -0.10355,0.03431 -0.15577,0.01838 -0.0521,-0.01593 -0.0958,-0.0529 -0.12106,-0.102591 -0.0127,-0.01515 -0.0207,-0.03286 -0.0253,-0.0518 l -0.4462,-0.0067 c 0.006,-0.03431 0.006,-0.06939 0,-0.103698 l 0.4462,0.0067 c 0.0137,-0.0548 0.0482,-0.101702 0.0954,-0.130201 0.0296,-0.01782 0.0627,-0.02751 0.0965,-0.02874 z m -2.48491,0.0067 c 0.0202,-5.01e-4 0.0406,0.0011 0.0605,0.0067 0.053,0.01459 0.0983,0.05035 0.12588,0.09936 0.008,0.01649 0.0143,0.03375 0.019,0.05168 l 0.74829,0.01303 v 0.103812 l -0.74829,-0.0067 c -0.0141,0.05257 -0.0481,0.09691 -0.0944,0.123121 -0.0467,0.02874 -0.10253,0.03709 -0.15527,0.02327 -0.0527,-0.01392 -0.0978,-0.04879 -0.12551,-0.09713 -0.0275,-0.04834 -0.0355,-0.106037 -0.0218,-0.160278 0.0137,-0.05425 0.048,-0.100697 0.0949,-0.128898 0.0297,-0.01771 0.063,-0.02741 0.0966,-0.02863 z m 1.76484,0.488852 0.52194,0.557797 c 0.0462,-0.03241 0.1047,-0.03966 0.15708,-0.0195 0.0515,0.01347 0.0956,0.04812 0.1217,0.09591 0.0263,0.04778 0.0324,0.104486 0.0169,0.156992 -0.018,0.07173 -0.0718,0.128208 -0.14112,0.148002 -0.0693,0.01983 -0.14355,2.2e-5 -0.19486,-0.05191 -0.0513,-0.05191 -0.0718,-0.12812 -0.0539,-0.199931 0.005,-0.02049 0.014,-0.04021 0.0251,-0.05837 l -0.52818,-0.557621 c 0.0294,-0.0185 0.0551,-0.04277 0.0752,-0.07151 z m -0.7106,0.01314 c 0.022,0.02907 0.0471,0.05524 0.0754,0.07775 l -0.11954,0.103698 c 0.027,0.04857 0.0341,0.10615 0.0195,0.160099 -0.0146,0.05391 -0.0494,0.09958 -0.0968,0.126832 -0.0473,0.02718 -0.10343,0.03363 -0.15551,0.01805 -0.0514,-0.01426 -0.0953,-0.04867 -0.12233,-0.09602 -0.027,-0.04722 -0.035,-0.103596 -0.0221,-0.156902 0.0157,-0.05302 0.0505,-0.09791 0.0972,-0.125624 0.0467,-0.02774 0.10178,-0.03609 0.1543,-0.02362 0.0184,0.0044 0.0355,0.01347 0.0501,0.02596 z m 0.30812,0.168484 c 0.0332,0.0067 0.0673,0.0067 0.10051,0 v 0.531876 c 0.051,0.01436 0.0942,0.04935 0.11954,0.09724 0.0567,0.09724 0.0188,0.227032 -0.0754,0.291771 -0.0477,0.02607 -0.1033,0.03185 -0.15509,0.01616 -0.0518,-0.01571 -0.0954,-0.0518 -0.12182,-0.100253 -0.027,-0.04745 -0.0346,-0.103927 -0.0218,-0.157336 0.0129,-0.05336 0.0457,-0.09946 0.0912,-0.12822 0.0178,-0.0089 0.0368,-0.01593 0.0566,-0.01927 z m -4.37173,6.030126 c 0.1515,0 0.2743,0.123006 0.2743,0.274752 0,0.151648 -0.12284,0.274576 -0.2743,0.274576 -0.15139,0 -0.27421,-0.12293 -0.27421,-0.274576 0,-0.151746 0.12284,-0.274752 0.27421,-0.274752 z"
         style="display:inline;fill:#ffffff;stroke-width:0.0185214" />
    </g>
  </g>
</svg>
