<?xml version="1.0" encoding="UTF-8" standalone="no"?>
<!-- Created with Inkscape (http://www.inkscape.org/) -->

<svg
   width="4.8620462mm"
   height="4.9267011mm"
   viewBox="0 0 4.8620462 4.9267011"
   version="1.1"
   id="svg1"
   inkscape:version="1.4.2 (f4327f4, 2025-05-13)"
   sodipodi:docname="printer.svg"
   xmlns:inkscape="http://www.inkscape.org/namespaces/inkscape"
   xmlns:sodipodi="http://sodipodi.sourceforge.net/DTD/sodipodi-0.dtd"
   xmlns="http://www.w3.org/2000/svg"
   xmlns:svg="http://www.w3.org/2000/svg">
  <sodipodi:namedview
     id="namedview1"
     pagecolor="#ffffff"
     bordercolor="#000000"
     borderopacity="0.25"
     inkscape:showpageshadow="2"
     inkscape:pageopacity="0.0"
     inkscape:pagecheckerboard="0"
     inkscape:deskcolor="#d1d1d1"
     inkscape:document-units="mm"
     inkscape:zoom="0.71891835"
     inkscape:cx="9.0413605"
     inkscape:cy="9.0413605"
     inkscape:window-width="1920"
     inkscape:window-height="1009"
     inkscape:window-x="-8"
     inkscape:window-y="-8"
     inkscape:window-maximized="1"
     inkscape:current-layer="layer1" />
  <defs
     id="defs1" />
  <g
     inkscape:label="Layer 1"
     inkscape:groupmode="layer"
     id="layer1"
     transform="translate(-102.65833,-146.05)">
    <g
       id="g42"
       inkscape:label="printer-0"
       style="display:inline"
       transform="matrix(0.26458333,0,0,0.26458333,72.989254,158.44593)">
      <rect
         x="112.34251"
         y="-46.643345"
         width="17.96142"
         height="18.205784"
         ry="9.1028919"
         id="rect2032"
         style="display:inline;fill:#003da5;fill-opacity:1;stroke:#ffffff;stroke-width:0.414818;stroke-miterlimit:4;stroke-dasharray:none" />
      <path
         d="m 125.70371,-39.976459 h -8.76098 c -1.0388,0 -1.87734,0.816056 -1.87734,1.827011 v 3.654023 h 2.50313 v 2.435987 h 7.5094 v -2.435987 h 2.50313 v -3.654023 c 0,-1.010955 -0.83854,-1.827011 -1.87734,-1.827011 z m -1.87734,6.699041 h -5.00626 v -3.04503 h 5.00626 z m 1.87734,-4.26303 c -0.34418,0 -0.62579,-0.274052 -0.62579,-0.609 0,-0.334955 0.28161,-0.608996 0.62579,-0.608996 0.34417,0 0.62578,0.274041 0.62578,0.608996 0,0.334948 -0.28161,0.609 -0.62578,0.609 z m -0.62579,-5.48102 h -7.50939 v 2.436016 h 7.50939 z"
         id="path3476"
         style="display:inline;fill:#ffffff;stroke-width:0.241333" />
    </g>
  </g>
</svg>
