<?xml version="1.0" encoding="UTF-8" standalone="no"?>
<!-- Created with Inkscape (http://www.inkscape.org/) -->

<svg
   width="4.8912139mm"
   height="4.8974028mm"
   viewBox="0 0 4.8912139 4.8974028"
   version="1.1"
   id="svg1"
   inkscape:version="1.4.2 (f4327f4, 2025-05-13)"
   sodipodi:docname="restroom-accessible.svg"
   xmlns:inkscape="http://www.inkscape.org/namespaces/inkscape"
   xmlns:sodipodi="http://sodipodi.sourceforge.net/DTD/sodipodi-0.dtd"
   xmlns="http://www.w3.org/2000/svg"
   xmlns:svg="http://www.w3.org/2000/svg">
  <sodipodi:namedview
     id="namedview1"
     pagecolor="#ffffff"
     bordercolor="#000000"
     borderopacity="0.25"
     inkscape:showpageshadow="2"
     inkscape:pageopacity="0.0"
     inkscape:pagecheckerboard="0"
     inkscape:deskcolor="#d1d1d1"
     inkscape:document-units="mm"
     inkscape:zoom="0.71891835"
     inkscape:cx="9.0413605"
     inkscape:cy="9.0413605"
     inkscape:window-width="1920"
     inkscape:window-height="1009"
     inkscape:window-x="-8"
     inkscape:window-y="-8"
     inkscape:window-maximized="1"
     inkscape:current-layer="layer1" />
  <defs
     id="defs1" />
  <g
     inkscape:label="Layer 1"
     inkscape:groupmode="layer"
     id="layer1"
     transform="translate(-102.65834,-146.04999)">
    <g
       id="g67"
       transform="matrix(0.26458333,0,0,0.26458333,115.98533,-20.156781)">
      <rect
         x="-50.162334"
         y="628.3905"
         width="18.071659"
         height="18.095051"
         ry="9.0475254"
         id="rect1808-7-7"
         style="display:inline;fill:#003da5;fill-opacity:1;stroke:#ffffff;stroke-width:0.414818;stroke-miterlimit:4;stroke-dasharray:none" />
      <path
         id="path5113-8"
         d="m -38.76764,640.56887 c -0.83467,0 -1.51446,-0.6806 -1.51446,-1.51629 0,-0.31875 0.0947,-0.60306 0.25815,-0.8529 l -0.60234,-0.60307 c -0.30978,0.3963 -0.49908,0.9046 -0.49908,1.44736 0.009,1.31813 1.05839,2.36921 2.35773,2.36921 0.55071,0 1.04978,-0.18956 1.44561,-0.4997 l -0.60234,-0.60306 c -0.24093,0.16368 -0.5249,0.25845 -0.84327,0.25845 z m 2.71052,-5.36731 c 0.42164,0 0.76583,-0.34462 0.76583,-0.77537 0,-0.42215 -0.34419,-0.77538 -0.76583,-0.77538 -0.42164,0 -0.77445,0.34461 -0.77445,0.77538 0.009,0.43075 0.35281,0.77537 0.77445,0.77537 z m 0.85187,1.97291 c -0.0947,-0.0947 -0.22372,-0.14647 -0.35279,-0.13785 l -1.60051,0.0861 0.8863,-1.00799 c 0.12908,-0.14646 0.1635,-0.33601 0.11188,-0.50831 -0.0258,-0.12054 -0.0947,-0.224 -0.20652,-0.29292 0,0 -2.10818,-1.23198 -2.10818,-1.23198 -0.17211,-0.10343 -0.38723,-0.0775 -0.5335,0.0516 l -1.03259,0.92184 c -0.1893,0.17229 -0.20651,0.45661 -0.0344,0.64614 0.1721,0.18953 0.45606,0.20677 0.64536,0.0344 l 0.78305,-0.69783 0.64535,0.37906 -1.14444,1.31813 c -0.47326,0.0775 -0.8949,0.29293 -1.23049,0.61169 l 0.59373,0.59445 c 0.26675,-0.24122 0.62816,-0.3963 1.01538,-0.3963 0.83467,0 1.51445,0.6806 1.51445,1.51628 0,0.38769 -0.14629,0.74954 -0.39582,1.0166 l 0.59374,0.59446 c 0.39581,-0.42214 0.63675,-0.99075 0.63675,-1.61106 0,-0.37045 -0.0861,-0.72367 -0.24094,-1.03382 l 0.61955,-0.0344 -0.15488,1.85229 c -0.0172,0.24983 0.17209,0.47382 0.42163,0.49967 0.009,0 0.0258,0 0.0344,0 0.24094,0 0.43885,-0.18092 0.45606,-0.42214 l 0.20652,-2.38644 c 0.0172,-0.13783 -0.0344,-0.26707 -0.12907,-0.36184 z m -7.02828,-3.35083 h -4.84155 c -0.0455,0 -0.082,0.0363 -0.082,0.0815 v 2.83494 c 0,0.0453 0.0365,0.0815 0.082,0.0815 h 4.84155 c 0.0455,0 0.082,-0.0363 0.082,-0.0815 v -2.83494 c 0,-0.0453 -0.0365,-0.0815 -0.082,-0.0815 z m -3.86595,0.81515 c -0.14588,0 -0.26441,-0.11767 -0.26441,-0.26265 0,-0.0182 0,-0.0363 0.009,-0.0542 h -0.41942 c -0.0455,0 -0.082,-0.0363 -0.082,-0.0816 v -0.0453 c 0,-0.0453 0.0365,-0.0815 0.082,-0.0815 h 0.75677 c 0.0365,0 0.0638,0.0181 0.0729,0.0453 0.0638,0.0453 0.10942,0.12681 0.10942,0.21737 0,0.14492 -0.11852,0.26267 -0.26442,0.26267 z m 1.51356,3.82222 c -0.86619,0 -1.66856,-0.17209 -2.31592,-0.471 0.18235,1.18651 1.13972,2.0832 2.29768,2.0832 1.14885,0 2.10622,-0.89669 2.29768,-2.06507 -0.64735,0.28982 -1.43149,0.45287 -2.27944,0.45287 z m 1.72326,-0.82424 a 1.7506188,0.37135178 0 0 1 -1.75062,0.37137 1.7506188,0.37135178 0 0 1 -1.75061,-0.37137 1.7506188,0.37135178 0 0 1 1.75061,-0.37134 1.7506188,0.37135178 0 0 1 1.75062,0.37134 z m -1.7415,2.71722 c -0.45589,0 -0.88442,-0.12681 -1.25825,-0.35323 l -0.21883,1.66655 c 0,0.0453 0.0365,0.0816 0.082,0.0816 h 2.6624 c 0.0455,0 0.082,-0.0363 0.082,-0.0816 l -0.20971,-1.60316 c -0.34648,0.19021 -0.72942,0.28984 -1.13973,0.28984 z m 1.34032,-7.12814 h -2.77182 c -0.0455,0 -0.42853,-0.009 -0.42853,0.0362 l -0.69295,0.24456 c 0,0.0453 0.0365,0.0815 0.082,0.0815 h 4.84155 c 0.0455,0 0.082,-0.0363 0.082,-0.0815 l -0.69296,-0.24456 c 0.009,-0.0453 -0.37383,-0.0362 -0.41941,-0.0362 z"
         style="display:inline;fill:#ffffff;stroke-width:0.264583" />
    </g>
  </g>
</svg>
